<svg width="45" height="40" viewBox="0 0 45 40" fill="none" xmlns="http://www.w3.org/2000/svg">
<path d="M0 5C0 2.23858 2.23858 0 5 0H40C42.7614 0 45 2.23858 45 5C45 7.76142 42.7614 10 40 10H5C2.23858 10 0 7.76142 0 5Z" fill="#0D0D0D"/>
<path d="M0 20C0 17.2386 2.23858 15 5 15H40C42.7614 15 45 17.2386 45 20C45 22.7614 42.7614 25 40 25H5C2.23858 25 0 22.7614 0 20Z" fill="#0D0D0D"/>
<path d="M0 35C0 32.2386 2.23858 30 5 30H40C42.7614 30 45 32.2386 45 35C45 37.7614 42.7614 40 40 40H5C2.23858 40 0 37.7614 0 35Z" fill="#0D0D0D"/>
</svg>
