<svg width="36" height="36" viewBox="0 0 36 36" fill="none" xmlns="http://www.w3.org/2000/svg">
<path d="M1.83757 33.4338C-0.115047 31.4812 -0.115047 28.3153 1.83757 26.3627L26.5863 1.61397C28.5389 -0.338654 31.7048 -0.338654 33.6574 1.61397C35.61 3.56659 35.61 6.73242 33.6574 8.68504L8.90864 33.4338C6.95602 35.3864 3.7902 35.3864 1.83757 33.4338Z" fill="#A61212"/>
<path d="M33.6574 34.1409C31.7048 36.0935 28.5389 36.0935 26.5863 34.1409L1.83757 9.39214C-0.115047 7.43952 -0.115047 4.2737 1.83757 2.32108C3.7902 0.368454 6.95602 0.368454 8.90864 2.32108L33.6574 27.0698C35.61 29.0224 35.61 32.1883 33.6574 34.1409Z" fill="#A61212"/>
</svg>
