<svg width="31" height="51" viewBox="0 0 31 51" fill="none" xmlns="http://www.w3.org/2000/svg">
<path d="M11.4613 50.2V0.199951H20.103C23.5142 0.199951 25.9969 0.9812 27.5508 2.5437C29.1238 4.1062 29.9197 6.69995 29.9387 10.325C29.9576 11.6583 29.9671 12.8562 29.9671 13.9187C29.9671 14.9604 29.9482 15.9812 29.9103 16.9812C29.8155 18.9812 29.4365 20.5645 28.7732 21.7312C28.1099 22.8979 27.0676 23.752 25.6463 24.2937V25.6062C27.1055 26.1479 28.1762 27.0125 28.8585 28.2C29.5407 29.3666 29.9103 30.9708 29.9671 33.0125C30.005 34.2833 30.024 35.4604 30.024 36.5437C30.024 37.6062 30.005 38.7833 29.9671 40.075C29.8345 43.6791 29.0101 46.2729 27.494 47.8562C25.9779 49.4187 23.5142 50.2 20.103 50.2H11.4613ZM17.6015 44.2H20.103C21.3349 44.2 22.254 43.8562 22.8604 43.1687C23.4858 42.4604 23.808 41.3979 23.8269 39.9812C23.8459 38.8145 23.8554 37.7104 23.8554 36.6687C23.8554 35.6062 23.8459 34.4916 23.8269 33.325C23.808 31.3666 23.4953 29.9708 22.8889 29.1375C22.3014 28.3041 21.3349 27.8875 19.9893 27.8875H17.6015V44.2ZM17.6015 21.8875H20.0746C21.3064 21.8875 22.2256 21.4604 22.832 20.6062C23.4574 19.752 23.7796 18.4916 23.7985 16.8249C23.8364 15.6166 23.8554 14.4708 23.8554 13.3874C23.8554 12.3041 23.8364 11.1687 23.7985 9.9812C23.7796 8.71037 23.4574 7.76245 22.832 7.13745C22.2256 6.51245 21.3159 6.19995 20.103 6.19995H17.6015V21.8875Z" fill="black"/>
<path d="M0.0239258 50.2V0.199951H6.1641V50.2H0.0239258Z" fill="black"/>
</svg>
